# xmcd CD database file
#
# Track frame offsets:
#	150
#	18432
#	41985
#
# Disc length: 775 seconds
#
# Revision: 5
# Processed by: cddbd v1.5.2PL0 Copyright (c) Steve Scherf et al.
# Submitted via: CDex 1.70beta3
#
DISCID=20030503
DTITLE=田村ゆかり - You and Me
DYEAR=2009
DGENRE=JPop
TTITLE0=田村ゆかり feat. motsu from m.o.v.e - You and Me
TTITLE1=星屑スパイラル
TTITLE2=Super Special Smiling Shy girl
EXTD=YEAR: 2009
EXTT0=
EXTT1=
EXTT2=
PLAYORDER=
